<svg xmlns="http://www.w3.org/2000/svg" viewBox="0 0 100 100" width="100" height="100">
  <defs>
    <linearGradient id="bgGrad" x1="0%" y1="0%" x2="100%" y2="100%">
      <stop offset="0%" stop-color="#4ade80" />
      <stop offset="100%" stop-color="#10b981" />
    </linearGradient>
    
    <linearGradient id="bubbleGrad" x1="0%" y1="0%" x2="0%" y2="100%">
      <stop offset="0%" stop-color="#ffffff" />
      <stop offset="100%" stop-color="#e2e8f0" />
    </linearGradient>

    <filter id="shadow" x="-10%" y="-10%" width="120%" height="120%">
      <feDropShadow dx="0" dy="2" stdDeviation="3" flood-opacity="0.15" />
    </filter>
  </defs>

  <rect x="0" y="0" width="100" height="100" rx="25" fill="url(#bgGrad)" />

  <g transform="matrix(0.65, 0, 0, 0.65, 17.5, 14)">
    <path 
      d="M50 28 
         C 31 28 16 40 16 55 
         C 16 63 21 70 28 75 
         C 27 79 24 83 24 83 
         C 24 83 33 82 39 77 
         C 42 78 46 79 50 79 
         C 69 79 84 67 84 55 
         C 84 40 69 28 50 28 Z" 
      fill="url(#bubbleGrad)" 
      filter="url(#shadow)" 
    />
  </g>
</svg>
